<svg width="21" height="20" viewBox="0 0 21 20" fill="none" xmlns="http://www.w3.org/2000/svg">
<path fill-rule="evenodd" clip-rule="evenodd" d="M4 0C1.79086 0 0 1.79086 0 4V16C0 18.2091 1.79086 20 4 20H9.90888V13.1578H7.53735V10.4913H9.90888V8.52491C9.90888 6.2427 11.3441 5 13.4411 5C14.4457 5 15.3085 5.07288 15.5602 5.10528V7.49055L14.1061 7.49129C12.9658 7.49129 12.7452 8.01767 12.7452 8.7892V10.492H15.4647L15.1106 13.1585H12.7452V20H16.0571C18.2663 20 20.0571 18.2091 20.0571 16V4C20.0571 1.79086 18.2663 0 16.0571 0H4Z" fill="white"/>
</svg>
