<svg width="171" height="43" viewBox="0 0 171 43" fill="none" xmlns="http://www.w3.org/2000/svg">
<g clip-path="url(#clip0_176_574)">
<path d="M44.278 17.603V41.1383C44.278 41.1778 44.2702 41.2169 44.255 41.2534C44.2398 41.2899 44.2175 41.323 44.1894 41.3509C44.1614 41.3787 44.128 41.4008 44.0914 41.4159C44.0547 41.4309 44.0154 41.4386 43.9758 41.4385H29.6499C29.57 41.4385 29.4933 41.4069 29.4368 41.3506C29.3803 41.2943 29.3485 41.2179 29.3485 41.1383V24.1348C29.3485 24.05 29.3305 23.9662 29.2956 23.8889C29.2607 23.8116 29.2098 23.7425 29.1462 23.6862L16.0249 12.0324C16.0033 12.0121 15.9762 11.9987 15.947 11.9937C15.9177 11.9887 15.8877 11.9925 15.8605 12.0044C15.8334 12.0164 15.8105 12.0361 15.7945 12.061C15.7786 12.0859 15.7704 12.115 15.771 12.1445V41.1383C15.771 41.2179 15.7392 41.2943 15.6827 41.3506C15.6262 41.4069 15.5495 41.4385 15.4696 41.4385H1.14792C1.068 41.4385 0.991343 41.4069 0.934826 41.3506C0.878309 41.2943 0.846558 41.2179 0.846558 41.1383V24.1348C0.846633 24.0501 0.864612 23.9664 0.899326 23.8891C0.93404 23.8118 0.984709 23.7427 1.04803 23.6862L26.0377 1.48726C26.093 1.43797 26.1646 1.41071 26.2388 1.41071C26.313 1.41071 26.3846 1.43797 26.4398 1.48726L44.0757 17.1544C44.1393 17.2107 44.1903 17.2798 44.2252 17.3571C44.26 17.4344 44.278 17.5182 44.278 17.603Z" fill="white"/>
<path d="M104.745 42.1147C101.992 42.1147 99.5511 41.5046 97.4218 40.2843C95.3095 39.0824 93.5761 37.3169 92.4171 35.1866C91.2099 33.0097 90.6066 30.4752 90.6072 27.5832C90.6072 24.6542 91.1998 22.082 92.3849 19.8668C93.57 17.6516 95.229 15.9243 97.3617 14.6849C99.4916 13.4483 101.97 12.83 104.798 12.83C107.55 12.83 109.944 13.4402 111.98 14.6605C113.973 15.8326 115.615 17.5132 116.737 19.5287C117.866 21.5562 118.43 23.7902 118.43 26.2308C118.43 26.6069 118.421 27.0107 118.402 27.4424C118.384 27.8741 118.355 28.3519 118.318 28.8758H96.4889C96.6768 31.58 97.5722 33.6358 99.175 35.0433C100.778 36.4508 102.634 37.1534 104.745 37.1512C106.442 37.1512 107.865 36.7664 109.014 35.9969C110.162 35.2296 111.057 34.1421 111.588 32.8705H117.584C116.829 35.4994 115.331 37.6961 113.088 39.4605C110.845 41.2249 108.064 42.1096 104.745 42.1147ZM104.745 17.7261C102.747 17.7261 100.975 18.3163 99.4289 19.4967C97.8832 20.6771 96.9407 22.4513 96.6015 24.8194H112.432C112.319 22.6424 111.546 20.9151 110.113 19.6375C108.68 18.3599 106.891 17.7227 104.745 17.7261Z" fill="white"/>
<path d="M122.453 41.4385V13.502H127.768L128.22 18.4023C129.065 16.6989 130.392 15.2793 132.038 14.319C133.715 13.3241 135.647 12.8264 137.834 12.8258C141.227 12.8258 143.895 13.8772 145.837 15.98C147.779 18.0828 148.749 21.2181 148.749 25.386V41.4385H142.81V26.0091C142.81 20.6023 140.586 17.899 136.137 17.899C133.912 17.899 132.075 18.6873 130.624 20.264C129.173 21.8406 128.447 24.0938 128.446 27.0234V41.441L122.453 41.4385Z" fill="white"/>
<path d="M165.233 41.4385C162.481 41.4385 160.294 40.7721 158.674 39.4394C157.053 38.1067 156.242 35.7316 156.242 32.3141V18.5144H151.435V13.502H156.242L156.977 6.40784H162.237V13.5045H170.154V18.517H162.237V32.3141C162.237 33.8542 162.567 34.9151 163.226 35.4969C163.886 36.0787 165.026 36.3696 166.647 36.3696H169.871V41.4385H165.233Z" fill="white"/>
<path d="M60.5645 41.4385V0.885315H66.5588V18.0077C67.4914 16.4034 68.8518 15.0875 70.4892 14.206C72.1665 13.2859 74.0232 12.8258 76.0594 12.8258C79.414 12.8258 82.0529 13.8772 83.9762 15.98C85.8995 18.0828 86.8609 21.2181 86.8604 25.386V41.4385H80.9228V26.0091C80.9228 20.6024 78.7551 17.899 74.4197 17.899C72.1566 17.899 70.281 18.6873 68.7928 20.264C67.3046 21.8406 66.5599 24.0938 66.5588 27.0234V41.4411L60.5645 41.4385Z" fill="white"/>
</g>
<defs>
<clipPath id="clip0_176_574">
<rect width="171" height="43" fill="white"/>
</clipPath>
</defs>
</svg>
