<svg width="131" height="33" viewBox="0 0 131 33" fill="none" xmlns="http://www.w3.org/2000/svg">
<g clip-path="url(#clip0_48_361)">
<path d="M33.9206 13.5094V31.5714C33.9206 31.6017 33.9146 31.6317 33.9029 31.6597C33.8913 31.6877 33.8742 31.7131 33.8527 31.7345C33.8312 31.7559 33.8057 31.7729 33.7776 31.7844C33.7495 31.7959 33.7194 31.8018 33.689 31.8018H22.7142C22.653 31.8018 22.5943 31.7775 22.551 31.7343C22.5077 31.6911 22.4833 31.6325 22.4833 31.5714V18.5222C22.4833 18.4571 22.4695 18.3928 22.4428 18.3335C22.4161 18.2742 22.3771 18.2211 22.3284 18.1779L12.2764 9.23428C12.2598 9.21874 12.2391 9.20841 12.2167 9.2046C12.1943 9.20078 12.1712 9.20365 12.1504 9.21284C12.1297 9.22203 12.1121 9.23713 12.0999 9.25625C12.0877 9.27538 12.0814 9.29767 12.0818 9.32034V31.5714C12.0818 31.6325 12.0575 31.6911 12.0142 31.7343C11.9709 31.7775 11.9122 31.8018 11.8509 31.8018H0.87937C0.818139 31.8018 0.759416 31.7775 0.716119 31.7343C0.672822 31.6911 0.648499 31.6325 0.648499 31.5714V18.5222C0.648556 18.4572 0.66233 18.393 0.688923 18.3336C0.715517 18.2743 0.754333 18.2213 0.802845 18.1779L19.947 1.14152C19.9893 1.10368 20.0442 1.08276 20.101 1.08276C20.1579 1.08276 20.2127 1.10368 20.255 1.14152L33.7656 13.1652C33.8143 13.2084 33.8533 13.2614 33.8801 13.3207C33.9068 13.38 33.9206 13.4444 33.9206 13.5094Z" fill="#3A4CF1"/>
<path d="M80.2433 32.3205C78.1344 32.3205 76.2643 31.8522 74.633 30.9157C73.0148 29.9934 71.6869 28.6384 70.799 27.0036C69.8742 25.3329 69.412 23.3878 69.4125 21.1684C69.4125 18.9205 69.8664 16.9466 70.7744 15.2465C71.6823 13.5465 72.9532 12.2209 74.587 11.2697C76.2186 10.3207 78.1177 9.84619 80.2842 9.84619C82.3918 9.84619 84.2259 10.3144 85.7862 11.251C87.3125 12.1505 88.5705 13.4403 89.4302 14.9871C90.2949 16.543 90.7272 18.2575 90.7272 20.1305C90.7272 20.4191 90.7201 20.7291 90.7058 21.0604C90.6915 21.3917 90.6699 21.7583 90.641 22.1604H73.9184C74.0623 24.2357 74.7482 25.8134 75.9761 26.8936C77.204 27.9738 78.6264 28.513 80.2433 28.5113C81.5429 28.5113 82.6331 28.216 83.5138 27.6254C84.3932 27.0366 85.079 26.202 85.4853 25.2261H90.0787C89.5007 27.2437 88.3526 28.9295 86.6344 30.2835C84.9163 31.6376 82.7859 32.3166 80.2433 32.3205ZM80.2433 13.6037C78.7124 13.6037 77.3548 14.0566 76.1707 14.9625C74.9865 15.8684 74.2645 17.23 74.0046 19.0474H86.1318C86.0454 17.3767 85.4533 16.0511 84.3556 15.0705C83.2578 14.09 81.8871 13.6011 80.2433 13.6037Z" fill="#606060"/>
<path d="M93.809 31.8016V10.362H97.881L98.2273 14.1227C98.8744 12.8154 99.8912 11.7259 101.152 10.989C102.437 10.2254 103.917 9.84345 105.592 9.84302C108.192 9.84302 110.235 10.6499 111.723 12.2637C113.211 13.8774 113.954 16.2836 113.954 19.4823V31.8016H109.404V19.9604C109.404 15.8111 107.7 13.7364 104.292 13.7364C102.588 13.7364 101.18 14.3414 100.068 15.5514C98.9569 16.7614 98.4009 18.4905 98.4004 20.7388V31.8035L93.809 31.8016Z" fill="#606060"/>
<path d="M126.582 31.8017C124.474 31.8017 122.799 31.2903 121.557 30.2675C120.315 29.2448 119.694 27.422 119.694 24.7993V14.2088H116.012V10.3621H119.694L120.257 4.91772H124.287V10.364H130.351V14.2108H124.287V24.7993C124.287 25.9812 124.539 26.7954 125.045 27.2419C125.55 27.6884 126.424 27.9116 127.665 27.9116H130.135V31.8017H126.582Z" fill="#606060"/>
<path d="M46.3973 31.8017V0.679443H50.9895V13.8199C51.7039 12.5887 52.7461 11.5788 54.0005 10.9023C55.2855 10.1962 56.7079 9.84309 58.2678 9.84309C60.8376 9.84309 62.8592 10.65 64.3327 12.2637C65.8061 13.8775 66.5426 16.2837 66.5422 19.4823V31.8017H61.9935V19.9605C61.9935 15.8111 60.3328 13.7364 57.0116 13.7364C55.2779 13.7364 53.841 14.3414 52.7009 15.5514C51.5608 16.7614 50.9903 18.4906 50.9895 20.7389V31.8036L46.3973 31.8017Z" fill="#606060"/>
</g>
<defs>
<clipPath id="clip0_48_361">
<rect width="131" height="33" fill="white"/>
</clipPath>
</defs>
</svg>
