<svg width="36" height="33" viewBox="0 0 36 33" fill="none" xmlns="http://www.w3.org/2000/svg">
<path d="M35.5213 13.2667V32.5497C35.5213 32.5821 35.5149 32.6141 35.5025 32.644C35.49 32.6739 35.4718 32.701 35.4488 32.7238C35.4259 32.7467 35.3986 32.7648 35.3686 32.7771C35.3387 32.7894 35.3065 32.7957 35.2741 32.7956H23.5574C23.492 32.7956 23.4293 32.7697 23.3831 32.7236C23.3369 32.6775 23.3109 32.6149 23.3109 32.5497V18.6183C23.3109 18.5489 23.2961 18.4802 23.2676 18.4169C23.2391 18.3535 23.1974 18.2969 23.1454 18.2508L12.4139 8.70257C12.3963 8.68598 12.3741 8.67495 12.3502 8.67088C12.3263 8.66681 12.3017 8.66987 12.2795 8.67968C12.2573 8.68949 12.2385 8.70561 12.2255 8.72603C12.2125 8.74644 12.2058 8.77024 12.2062 8.79445V32.5497C12.2062 32.6149 12.1803 32.6775 12.134 32.7236C12.0878 32.7697 12.0251 32.7956 11.9597 32.7956H0.246478C0.181108 32.7956 0.118416 32.7697 0.0721919 32.7236C0.0259682 32.6775 0 32.6149 0 32.5497V18.6183C6.14002e-05 18.549 0.0147665 18.4804 0.0431577 18.4171C0.0715489 18.3537 0.112989 18.2971 0.164781 18.2508L20.6031 0.0627263C20.6483 0.0223345 20.7069 0 20.7675 0C20.8282 0 20.8868 0.0223345 20.932 0.0627263L35.3558 12.8992C35.4079 12.9453 35.4495 13.0019 35.478 13.0652C35.5066 13.1286 35.5213 13.1972 35.5213 13.2667Z" fill="#3A4CF1"/>
</svg>
