<svg width="21" height="20" viewBox="0 0 21 20" fill="none" xmlns="http://www.w3.org/2000/svg">
<path fill-rule="evenodd" clip-rule="evenodd" d="M10.1743 0C7.45073 0 7.10976 0.0116667 6.04004 0.06C2.398 0.226667 0.373902 2.24167 0.206759 5.87667C0.157452 6.94417 0.145752 7.28417 0.145752 10C0.145752 12.7158 0.157452 13.0567 0.205923 14.1233C0.373066 17.755 2.39382 19.7733 6.03921 19.94C7.10976 19.9883 7.45073 20 10.1743 20C12.8979 20 13.2397 19.9883 14.3094 19.94C17.9481 19.7733 19.9773 17.7583 20.1419 14.1233C20.1912 13.0567 20.2029 12.7158 20.2029 10C20.2029 7.28417 20.1912 6.94417 20.1427 5.8775C19.9789 2.24917 17.9557 0.2275 14.3103 0.0608333C13.2397 0.0116667 12.8979 0 10.1743 0ZM10.1743 4.86523C7.33039 4.86523 5.02466 7.1644 5.02466 10.0002C5.02466 12.8361 7.33039 15.1361 10.1743 15.1361C13.0183 15.1361 15.324 12.8369 15.324 10.0002C15.324 7.1644 13.0183 4.86523 10.1743 4.86523ZM10.1744 13.3332C8.32831 13.3332 6.83154 11.8415 6.83154 9.99984C6.83154 8.159 8.32831 6.6665 10.1744 6.6665C12.0205 6.6665 13.5173 8.159 13.5173 9.99984C13.5173 11.8415 12.0205 13.3332 10.1744 13.3332ZM15.5279 3.4625C14.8627 3.4625 14.3236 4 14.3236 4.6625C14.3236 5.325 14.8627 5.8625 15.5279 5.8625C16.1923 5.8625 16.7305 5.325 16.7305 4.6625C16.7305 4 16.1923 3.4625 15.5279 3.4625Z" fill="white"/>
</svg>
