<svg width="76" height="76" viewBox="0 0 76 76" fill="none" xmlns="http://www.w3.org/2000/svg">
<path d="M47.5 22.1667C50.9978 22.1667 53.8333 25.0022 53.8333 28.5M66.5 28.5C66.5 38.9934 57.9934 47.5 47.5 47.5C45.5805 47.5 43.7274 47.2153 41.9807 46.6859L34.8333 53.8333H28.5V60.1667H22.1667V66.5H12.6667C10.9178 66.5 9.5 65.0822 9.5 63.3333V55.145C9.5 54.3052 9.83363 53.4997 10.4275 52.9058L29.3141 34.0193C28.7847 32.2726 28.5 30.4195 28.5 28.5C28.5 18.0066 37.0066 9.5 47.5 9.5C57.9934 9.5 66.5 18.0066 66.5 28.5Z" stroke="#3A4CF1" stroke-width="3" stroke-linecap="round" stroke-linejoin="round"/>
</svg>
