<svg width="92" height="92" viewBox="0 0 92 92" fill="none" xmlns="http://www.w3.org/2000/svg">
<path d="M72.8333 76.6667H19.1667C14.9325 76.6667 11.5 73.2342 11.5 69L11.5 23C11.5 18.7659 14.9325 15.3334 19.1667 15.3334L57.5 15.3334C61.7342 15.3334 65.1667 18.7659 65.1667 23V26.8334M72.8333 76.6667C68.5991 76.6667 65.1667 73.2342 65.1667 69L65.1667 26.8334M72.8333 76.6667C77.0675 76.6667 80.5 73.2342 80.5 69V34.5C80.5 30.2659 77.0675 26.8334 72.8333 26.8334L65.1667 26.8334M49.8333 15.3334L34.5 15.3334M26.8333 61.3334H49.8333M26.8333 30.6667H49.8333V46H26.8333V30.6667Z" stroke="#3A4CF1" stroke-width="3" stroke-linecap="round" stroke-linejoin="round"/>
</svg>
